<svg width="28" height="28" viewBox="0 0 28 28" fill="none" xmlns="http://www.w3.org/2000/svg">
<path d="M14.3927 0.395996C6.94259 0.395996 0.897705 6.44182 0.897705 13.8931C0.897705 16.8768 1.86331 19.6249 3.49622 21.8626L1.77696 26.9505L7.13884 25.2781C9.23492 26.6128 11.7235 27.3902 14.3927 27.3902C21.8428 27.3902 27.8876 21.3444 27.8876 13.8931C27.8876 6.44182 21.8428 0.395996 14.3927 0.395996ZM20.571 21.1324C18.1216 22.1139 15.2014 21.1639 12.0061 18.7376C8.811 16.3115 6.70707 12.8959 6.56575 10.3598C6.42445 7.82372 8.48913 6.5439 9.61175 6.55175C10.7344 6.5596 11.9669 10.1478 11.9826 10.6975C11.9983 11.2549 10.6088 12.2443 10.5538 12.7154C10.4989 13.1865 12.4458 15.5106 13.2701 16.1387C14.0865 16.759 15.7744 17.9525 16.6458 17.8425C17.5093 17.7247 18.0825 15.9895 18.632 15.8796C19.1815 15.7697 22.1804 17.2614 22.4787 17.6462C22.7771 18.0388 22.7456 20.2688 20.571 21.1324Z" fill="#436A57"/>
</svg>
