<svg width="47" height="47" viewBox="0 0 47 47" fill="none" xmlns="http://www.w3.org/2000/svg">
<path d="M31 31L46 46M18.5 36C16.2019 36 13.9262 35.5473 11.803 34.6679C9.67984 33.7884 7.75066 32.4994 6.12563 30.8744C4.50061 29.2493 3.21157 27.3202 2.33211 25.197C1.45265 23.0738 1 20.7981 1 18.5C1 16.2019 1.45265 13.9262 2.33211 11.803C3.21157 9.67984 4.50061 7.75066 6.12563 6.12563C7.75066 4.50061 9.67984 3.21157 11.803 2.33211C13.9262 1.45265 16.2019 1 18.5 1C23.1413 1 27.5925 2.84374 30.8744 6.12563C34.1563 9.40752 36 13.8587 36 18.5C36 23.1413 34.1563 27.5925 30.8744 30.8744C27.5925 34.1563 23.1413 36 18.5 36Z" stroke="white" stroke-width="2" stroke-linecap="round" stroke-linejoin="round"/>
</svg>
