<svg width="35" height="35" viewBox="0 0 35 35" fill="none" xmlns="http://www.w3.org/2000/svg">
<rect width="35" height="35" rx="17.5" fill="#48C95F"/>
<path d="M24.436 10.5547C22.7073 8.83203 20.4024 7.875 17.9695 7.875C12.9116 7.875 8.81402 11.9583 8.81402 16.9987C8.81402 18.5938 9.2622 20.1888 10.0305 21.5286L8.75 26.25L13.6159 24.974C14.9604 25.6758 16.4329 26.0586 17.9695 26.0586C23.0274 26.0586 27.125 21.9753 27.125 16.9349C27.061 14.5742 26.1646 12.2773 24.436 10.5547ZM22.3872 20.2526C22.1951 20.763 21.2988 21.2734 20.8506 21.3372C20.4665 21.401 19.9543 21.401 19.4421 21.2734C19.122 21.1458 18.6738 21.0182 18.1616 20.763C15.8567 19.806 14.3841 17.5091 14.2561 17.3177C14.1281 17.1901 13.2957 16.1055 13.2957 14.957C13.2957 13.8086 13.872 13.2982 14.064 13.043C14.2561 12.7878 14.5122 12.7878 14.7043 12.7878C14.8323 12.7878 15.0244 12.7878 15.1524 12.7878C15.2805 12.7878 15.4726 12.724 15.6646 13.1706C15.8567 13.6172 16.3049 14.7656 16.3689 14.8294C16.4329 14.957 16.4329 15.0846 16.3689 15.2122C16.3049 15.3398 16.2409 15.4674 16.1128 15.5951C15.9848 15.7227 15.8567 15.9141 15.7927 15.9779C15.6646 16.1055 15.5366 16.2331 15.6646 16.4245C15.7927 16.6797 16.2409 17.3815 16.9451 18.0195C17.8415 18.7852 18.5457 19.0404 18.8018 19.168C19.0579 19.2956 19.186 19.2318 19.314 19.1042C19.4421 18.9766 19.8902 18.4661 20.0183 18.2109C20.1463 17.9557 20.3384 18.0195 20.5305 18.0833C20.7226 18.1471 21.875 18.7214 22.0671 18.849C22.3232 18.9766 22.4512 19.0404 22.5152 19.1042C22.5793 19.2956 22.5793 19.7422 22.3872 20.2526Z" fill="white"/>
</svg>
