<svg width="8" height="6" viewBox="0 0 8 6" fill="none" xmlns="http://www.w3.org/2000/svg">
<path d="M7.8574 0.82946L7.15247 0.139535C7.0574 0.0465116 6.9386 0 6.80393 0C6.66933 0 6.55049 0.0465116 6.45545 0.139535L3.06535 3.45737L1.55247 1.96899C1.45743 1.87597 1.33861 1.82946 1.20396 1.82946C1.06931 1.82946 0.950493 1.87597 0.855447 1.96899L0.150495 2.65891C0.0475247 2.75194 0 2.86822 0 3C0 3.13178 0.0475247 3.24806 0.142574 3.34109L2.01188 5.17054L2.71683 5.86047C2.81188 5.95349 2.93069 6 3.06535 6C3.2 6 3.31881 5.95349 3.41386 5.86047L4.11881 5.17054L7.8574 1.51163C7.95247 1.41861 8 1.30233 8 1.17054C8 1.03876 7.95247 0.92248 7.8574 0.82946Z" fill="white"/>
</svg>
