<svg aria-hidden="true" xmlns="http://www.w3.org/2000/svg" xmlns:xlink="http://www.w3.org/1999/xlink"><symbol viewBox="0 0 19 15" fill="none" id="icon-arrow-next" xmlns="http://www.w3.org/2000/svg">
<path d="M17.1646 6.3086L0.884766 6.30859V8.0781H17.1646V6.3086Z" fill="currentColor"/>
<path d="M14.0596 11.5751L12.8083 10.3238L15.9115 7.22063L12.8083 4.11748L14.0596 2.86621L18.414 7.22063L14.0596 11.5751Z" fill="currentColor"/>
</symbol><symbol viewBox="0 0 19 15" fill="none" id="icon-arrow-prev" xmlns="http://www.w3.org/2000/svg">
<path d="M1.8354 6.3086L18.1152 6.30859V8.0781H1.8354V6.3086Z" fill="currentColor"/>
<path d="M4.94035 11.5751L6.19165 10.3238L3.08845 7.22063L6.19165 4.11748L4.94035 2.86621L0.585951 7.22063L4.94035 11.5751Z" fill="currentColor"/>
</symbol><symbol viewBox="0 0 47 47" fill="none" id="icon-search" xmlns="http://www.w3.org/2000/svg">
<path d="M31 31L46 46M18.5 36C16.2019 36 13.9262 35.5473 11.803 34.6679C9.67984 33.7884 7.75066 32.4994 6.12563 30.8744C4.50061 29.2493 3.21157 27.3202 2.33211 25.197C1.45265 23.0738 1 20.7981 1 18.5C1 16.2019 1.45265 13.9262 2.33211 11.803C3.21157 9.67984 4.50061 7.75066 6.12563 6.12563C7.75066 4.50061 9.67984 3.21157 11.803 2.33211C13.9262 1.45265 16.2019 1 18.5 1C23.1413 1 27.5925 2.84374 30.8744 6.12563C34.1563 9.40752 36 13.8587 36 18.5C36 23.1413 34.1563 27.5925 30.8744 30.8744C27.5925 34.1563 23.1413 36 18.5 36Z" stroke="currentColor" stroke-width="2" stroke-linecap="round" stroke-linejoin="round"/>
</symbol><symbol viewBox="0 0 28 28" fill="none" id="icon-wh" xmlns="http://www.w3.org/2000/svg">
<path d="M14.3927 0.395996C6.94259 0.395996 0.897705 6.44182 0.897705 13.8931C0.897705 16.8768 1.86331 19.6249 3.49622 21.8626L1.77696 26.9505L7.13884 25.2781C9.23492 26.6128 11.7235 27.3902 14.3927 27.3902C21.8428 27.3902 27.8876 21.3444 27.8876 13.8931C27.8876 6.44182 21.8428 0.395996 14.3927 0.395996ZM20.571 21.1324C18.1216 22.1139 15.2014 21.1639 12.0061 18.7376C8.811 16.3115 6.70707 12.8959 6.56575 10.3598C6.42445 7.82372 8.48913 6.5439 9.61175 6.55175C10.7344 6.5596 11.9669 10.1478 11.9826 10.6975C11.9983 11.2549 10.6088 12.2443 10.5538 12.7154C10.4989 13.1865 12.4458 15.5106 13.2701 16.1387C14.0865 16.759 15.7744 17.9525 16.6458 17.8425C17.5093 17.7247 18.0825 15.9895 18.632 15.8796C19.1815 15.7697 22.1804 17.2614 22.4787 17.6462C22.7771 18.0388 22.7456 20.2688 20.571 21.1324Z" fill="currentColor"/>
</symbol></svg>